<?xml version="1.0" encoding="UTF-8"?>
<svg xmlns="http://www.w3.org/2000/svg" xmlns:xlink="http://www.w3.org/1999/xlink" width="375pt" height="374.999991pt" viewBox="0 0 375 374.999991" version="1.2">
<defs>
<clipPath id="clip1">
  <path d="M 37.621094 168.355469 L 337.367188 168.355469 L 337.367188 183.5 L 37.621094 183.5 Z M 37.621094 168.355469 "/>
</clipPath>
<clipPath id="clip2">
  <path d="M 37.621094 175.421875 L 337.367188 175.421875 L 337.367188 267.929688 L 37.621094 267.929688 Z M 37.621094 175.421875 "/>
</clipPath>
</defs>
<g id="surface1">
<g clip-path="url(#clip1)" clip-rule="nonzero">
<path style=" stroke:none;fill-rule:nonzero;fill:rgb(100%,100%,100%);fill-opacity:1;" d="M 46.574219 176.277344 C 48.191406 176.527344 49.265625 176.554688 51.082031 176.753906 C 55.242188 177.214844 58.402344 177.871094 62.515625 178.378906 C 67.09375 178.941406 71.9375 178.832031 76.832031 178.894531 C 84.144531 178.992188 91.046875 179.628906 98.410156 179.628906 C 101.894531 179.628906 105.664062 179.484375 108.917969 180.023438 C 111.277344 180.410156 112.234375 180.726562 115.023438 180.820312 C 118.597656 180.9375 122.171875 180.761719 125.707031 180.972656 C 130.082031 181.238281 134.097656 181.566406 138.777344 181.578125 C 144.65625 181.589844 153.949219 182.222656 159.5625 181.59375 C 162.359375 181.28125 164.40625 180.3125 167.417969 180.015625 C 177.199219 179.042969 185.78125 181.0625 195.53125 181.089844 C 203.683594 181.113281 210.222656 180.574219 217.460938 179.296875 C 222.875 178.339844 226.34375 178.179688 232.523438 178.164062 C 245.671875 178.132812 254.765625 182 268.15625 182 C 272.554688 182 277.722656 182.234375 281.957031 181.90625 C 286.347656 181.570312 290.011719 180.621094 294.476562 180.386719 C 301.449219 180.023438 308.171875 184.191406 314.1875 182.886719 C 316.539062 182.375 316.769531 181.714844 318.480469 181.027344 C 320.328125 180.277344 322.695312 180.175781 324.851562 179.585938 C 328.207031 178.671875 333.726562 177.492188 337.367188 176.402344 L 337.367188 171.933594 C 331.324219 170.652344 316.542969 170.265625 312.421875 170.765625 C 303.925781 171.792969 299.097656 169.039062 290.226562 169.195312 C 285.949219 169.273438 281.429688 168.976562 277.566406 169.804688 C 275.816406 170.175781 269.988281 169.40625 267.828125 169.710938 C 257.542969 171.140625 252.152344 167.789062 242.25 169.195312 C 237.691406 169.84375 228.933594 169.816406 224.285156 170.476562 C 218.296875 171.328125 213.878906 168.949219 207.597656 169.445312 C 203.90625 169.738281 199.285156 170.304688 196.378906 171.179688 C 193.492188 172.050781 190.109375 170.050781 186.460938 170.726562 C 182.019531 171.550781 176.308594 172.550781 171.109375 172.851562 C 163.1875 173.3125 158.480469 173.519531 150.773438 172.488281 C 148.65625 172.207031 140.40625 171.917969 138.339844 171.703125 C 135.125 171.367188 133.175781 171.546875 130.292969 171.003906 C 127.058594 170.390625 122.921875 170.582031 119.078125 170.476562 C 113.828125 170.332031 107.894531 170.300781 102.699219 170.476562 C 96.511719 170.679688 90.683594 171.457031 84.328125 171.457031 C 77.816406 171.457031 73.628906 172.515625 67.695312 172.949219 C 62.449219 173.335938 57.765625 173.128906 52.46875 173.773438 C 50.195312 174.050781 43.097656 174.289062 37.621094 174.457031 L 37.621094 176.023438 C 41.445312 176.207031 45.765625 176.148438 46.574219 176.277344 "/>
</g>
<g clip-path="url(#clip2)" clip-rule="nonzero">
<path style=" stroke:none;fill-rule:nonzero;fill:rgb(91.758728%,97.24884%,100%);fill-opacity:1;" d="M 324.851562 179.011719 C 322.695312 179.484375 320.328125 179.570312 318.480469 180.171875 C 316.769531 180.722656 316.539062 181.257812 314.1875 181.671875 C 308.171875 182.71875 301.449219 179.367188 294.476562 179.65625 C 290.011719 179.84375 286.347656 180.613281 281.957031 180.878906 C 277.722656 181.140625 272.554688 180.953125 268.15625 180.953125 C 254.765625 180.953125 245.671875 177.839844 232.523438 177.867188 C 226.34375 177.882812 222.875 178.007812 217.460938 178.777344 C 210.222656 179.808594 203.683594 180.242188 195.53125 180.222656 C 185.78125 180.199219 177.199219 178.574219 167.417969 179.359375 C 164.40625 179.597656 162.359375 180.378906 159.5625 180.628906 C 153.949219 181.132812 144.65625 180.625 138.777344 180.617188 C 134.097656 180.609375 130.082031 180.339844 125.707031 180.128906 C 122.171875 179.957031 118.597656 180.101562 115.023438 180.003906 C 112.234375 179.929688 111.277344 179.675781 108.917969 179.363281 C 105.664062 178.929688 101.894531 179.046875 98.410156 179.046875 C 91.046875 179.046875 84.144531 178.535156 76.832031 178.457031 C 71.9375 178.402344 67.09375 178.492188 62.515625 178.039062 C 58.402344 177.632812 55.242188 176.664062 51.082031 176.292969 C 49.265625 176.132812 48.191406 176.113281 46.574219 175.90625 C 45.765625 175.808594 41.445312 175.648438 37.621094 175.5 L 37.621094 267.929688 L 337.367188 267.929688 L 337.367188 176.179688 C 333.726562 177.058594 328.207031 178.277344 324.851562 179.011719 "/>
</g>
<path style=" stroke:none;fill-rule:nonzero;fill:rgb(23.529053%,78.819275%,78.819275%);fill-opacity:1;" d="M 214.5625 138.039062 C 207.144531 133.605469 191.863281 141.175781 190.386719 147.617188 C 189.925781 132.117188 177.992188 107.429688 160.847656 110.335938 C 160.847656 110.335938 186.964844 139.714844 189.304688 165.921875 C 189.265625 169.011719 189.417969 171.640625 189.519531 173.03125 C 189.515625 173.351562 189.515625 173.664062 189.503906 173.984375 C 189.503906 173.984375 189.527344 173.808594 189.5625 173.542969 C 189.589844 173.882812 189.609375 174.089844 189.609375 174.089844 C 189.605469 173.628906 189.640625 173.210938 189.652344 172.765625 C 189.777344 171.652344 189.960938 169.824219 190.121094 167.5 C 195.554688 144 214.5625 138.039062 214.5625 138.039062 "/>
<path style=" stroke:none;fill-rule:nonzero;fill:rgb(20.779419%,83.529663%,81.568909%);fill-opacity:1;" d="M 191.019531 186.71875 C 190.738281 186.609375 190.453125 186.527344 190.164062 186.503906 C 190.15625 186.539062 190.140625 186.582031 190.128906 186.636719 C 190.085938 186.800781 190.03125 187.03125 189.976562 187.265625 C 189.855469 187.746094 189.765625 188.175781 189.699219 188.316406 C 189.675781 188.324219 189.707031 188.382812 189.527344 188.417969 C 189.304688 188.359375 189.375 188.300781 189.34375 188.285156 L 189.320312 188.214844 C 189.304688 188.164062 189.285156 188.097656 189.265625 188.015625 C 189.230469 187.863281 189.1875 187.65625 189.140625 187.433594 C 189.070312 187.085938 188.988281 186.699219 188.941406 186.507812 C 188.65625 186.539062 188.378906 186.621094 188.101562 186.730469 C 185.324219 187.808594 183.304688 192.910156 183.320312 196.730469 C 183.320312 201.050781 186.144531 204.496094 189.5625 204.5 C 192.976562 204.496094 195.800781 201.050781 195.800781 196.730469 C 195.820312 192.894531 193.800781 187.773438 191.019531 186.71875 "/>
<path style=" stroke:none;fill-rule:nonzero;fill:rgb(21.958923%,85.099792%,84.309387%);fill-opacity:1;" d="M 189.5625 204.5 C 186.144531 204.496094 183.320312 201.050781 183.320312 196.730469 C 183.304688 192.910156 185.324219 187.808594 188.101562 186.730469 C 188.378906 186.621094 188.65625 186.539062 188.941406 186.507812 C 188.988281 186.699219 189.070312 187.085938 189.140625 187.433594 C 189.1875 187.65625 189.230469 187.863281 189.265625 188.015625 C 189.285156 188.097656 189.304688 188.164062 189.320312 188.214844 L 189.34375 188.285156 C 189.375 188.300781 189.304688 188.359375 189.527344 188.417969 C 189.707031 188.382812 189.675781 188.324219 189.699219 188.316406 C 189.765625 188.175781 189.855469 187.746094 189.976562 187.265625 C 190.03125 187.03125 190.085938 186.800781 190.128906 186.636719 C 190.140625 186.582031 190.15625 186.539062 190.164062 186.503906 C 190.453125 186.527344 190.738281 186.609375 191.019531 186.71875 C 193.800781 187.773438 195.820312 192.894531 195.800781 196.730469 C 195.800781 201.050781 192.976562 204.496094 189.5625 204.5 Z M 191.199219 186.386719 C 191.09375 186.253906 190.972656 183.003906 190.964844 182.984375 C 190.945312 182.984375 190.148438 174.992188 190.15625 174.59375 C 190.140625 174.160156 189.824219 172.15625 189.722656 172.101562 L 189.65625 172.054688 L 189.570312 172.035156 L 189.488281 172.054688 L 189.421875 172.101562 C 189.316406 172.15625 188.980469 174.15625 188.960938 174.59375 C 188.96875 174.992188 188.164062 182.980469 188.164062 182.984375 C 188.152344 183.007812 188.011719 186.253906 187.910156 186.40625 C 184.894531 187.6875 182.953125 192.816406 182.941406 196.730469 C 182.949219 201.203125 185.871094 204.875 189.5625 204.882812 C 193.25 204.875 196.175781 201.203125 196.179688 196.730469 C 196.167969 192.796875 194.230469 187.640625 191.199219 186.386719 "/>
</g>
</svg>
